# xmcd
# Copyright (C) 1995-1998 Ti Kan
#
# Track frame offsets:
#       150
#       13688
#       27749
#       41738
#       53091
#       65667
#       79640
#       93189
#       105771
#       119260
#       132569
#       143752
#       154715
#       174158
#       186070
#
# Disc length: 2696 seconds
#
# Revision: 0
# Processed by: cddbd v1.5.2PL0 Copyright (c) Steve Scherf et al.
# Submitted via: CD-Transfer v1.0
#
DISCID=be0a860f
DTITLE=Orig. Zillertal Sound - 
DYEAR=1900
DGENRE=
TTITLE0=Ole Auf Volksmusik (07)
TTITLE1=Heyaho Zillertaler Trachtenwelt (07)
TTITLE2=Da Leb I Gern (07)
TTITLE3=I Bin A Zillertaler (07)
TTITLE4=Wer Jodeln Kann Is Besser Drann (07)
TTITLE5=O Mann Bist Du Süß (07)
TTITLE6=Mutterliebe (07)
TTITLE7=Ich Geh Heut Mit Mein Madl Zum Musikantenstadl (07)
TTITLE8=Echt Gewaltig (07)
TTITLE9=Lieben Heißt Vor Allen Dingen (07)
TTITLE10=Rutsch Doch Näher Her Zu Mir (07)
TTITLE11=Ihr Wart Ein Super Publikum (07)
TTITLE12=Die Hände Hoch (07)
TTITLE13=Schihaserljagd (07)
TTITLE14=Ballermann Der Berge (07)
EXTD=
EXTT0=
EXTT1=
EXTT2=
EXTT3=
EXTT4=
EXTT5=
EXTT6=
EXTT7=
EXTT8=
EXTT9=
EXTT10=
EXTT11=
EXTT12=
EXTT13=
EXTT14=
PLAYORDER=
